<svg id="Capa_1" enable-background="new 0 0 510 510" height="512" viewBox="0 0 510 510" width="512" xmlns="http://www.w3.org/2000/svg" xmlns:xlink="http://www.w3.org/1999/xlink"><linearGradient id="lg1"><stop offset="0" stop-color="#c69c6d"/><stop offset=".3092" stop-color="#b88e61"/><stop offset=".8908" stop-color="#946a40"/><stop offset="1" stop-color="#8c6239"/></linearGradient><radialGradient id="SVGID_1_" cx="436.656" cy="307.231" gradientUnits="userSpaceOnUse" r="155.625" xlink:href="#lg1"/><radialGradient id="SVGID_2_" cx="152.653" cy="77.173" gradientUnits="userSpaceOnUse" r="149.856" xlink:href="#lg1"/><radialGradient id="SVGID_3_" cx="117.748" cy="123.185" gradientUnits="userSpaceOnUse" r="203.315" xlink:href="#lg1"/><radialGradient id="SVGID_4_" cx="106.641" cy="104.146" gradientUnits="userSpaceOnUse" r="315.368" xlink:href="#lg1"/><radialGradient id="SVGID_5_" cx="120.921" cy="173.955" gradientUnits="userSpaceOnUse" r="322.441" xlink:href="#lg1"/><linearGradient id="lg2"><stop offset="0" stop-color="#603813" stop-opacity="0"/><stop offset="1" stop-color="#42210b"/></linearGradient><linearGradient id="SVGID_6_" gradientUnits="userSpaceOnUse" x1="264.106" x2="79.675" xlink:href="#lg2" y1="225.033" y2="40.602"/><linearGradient id="SVGID_7_" gradientUnits="userSpaceOnUse" x1="226.457" x2="40.534" xlink:href="#lg2" y1="402.524" y2="216.601"/><linearGradient id="SVGID_8_" gradientUnits="userSpaceOnUse" x1="169.005" x2="1.743" xlink:href="#lg2" y1="292.972" y2="149.018"/><linearGradient id="lg3"><stop offset="0" stop-color="#ffe548"/><stop offset=".1758" stop-color="#ffde50"/><stop offset=".4446" stop-color="#ffca65"/><stop offset=".7709" stop-color="#ffaa87"/><stop offset="1" stop-color="#ff90a4"/></linearGradient><linearGradient id="SVGID_9_" gradientUnits="userSpaceOnUse" x1="92.453" x2="173.715" xlink:href="#lg3" y1="38.966" y2="141.092"/><linearGradient id="SVGID_10_" gradientUnits="userSpaceOnUse" x1="72.659" x2="113.29" xlink:href="#lg3" y1="181.63" y2="232.694"/><linearGradient id="SVGID_11_" gradientUnits="userSpaceOnUse" x1="438.836" x2="479.467" xlink:href="#lg3" y1="153.453" y2="204.516"/><linearGradient id="SVGID_12_" gradientUnits="userSpaceOnUse" x1="120.083" x2="160.714" xlink:href="#lg3" y1="289.174" y2="340.237"/><linearGradient id="SVGID_13_" gradientUnits="userSpaceOnUse" x1="382.081" x2="422.712" xlink:href="#lg3" y1="99.24" y2="150.303"/><path d="m473.053 468.811c-45.805 13.566-110.587 11.757-198.009-5.521-2.253-.444-4.506-.888-6.727-1.349-31.304-6.394-59.006-13.502-78.077-18.754 17.437-1.666 34.699-3.998 51.628-6.965 67.621-11.868 125.564-33.255 168.434-61.687 12.867-.428 24.259-1.888 33.477-4.617 27.321-8.076 56.007 7.505 64.083 34.81 8.093 27.321-7.504 56.007-34.809 64.083z" fill="url(#SVGID_1_)"/><path d="m145.149 225.186c-22.735-26.33-20.082-66.044 5.954-89.115l41.903-37.131c8.481-7.515 11.165-19.634 6.649-30.028-9.406-21.65 12.388-43.712 34.151-34.571 45.305 19.029 75.682 62.354 78.13 111.432 2.752 55.183-41.248 101.433-96.5 101.433h-22.179c-18.473 0-36.033-8.038-48.108-22.02z" fill="url(#SVGID_2_)"/><path d="m152.825 296.519c-9.075-.823-18.006-2.123-26.727-3.905-27.901-5.703-45.898-32.945-40.195-60.845 5.701-27.904 32.936-45.91 60.845-40.197 24.939 5.103 53.297 3.524 79.84-4.434 26.48-7.938 48.502-21.755 58.911-36.96 16.09-23.5 48.181-29.503 71.679-13.423 23.499 16.087 29.509 48.178 13.423 71.679-23.993 35.048-64.62 62.569-114.399 77.491-33.585 10.067-69.443 13.672-103.377 10.594z" fill="url(#SVGID_3_)"/><path d="m121.781 380.944c-15.066-1.366-29.898-3.43-44.347-6.195-27.971-5.353-46.307-32.367-40.953-60.337 5.352-27.973 32.365-46.321 60.338-40.954 48.027 9.191 101.764 8.479 151.313-2.006 49.871-10.553 91.149-30.508 110.42-53.384 18.348-21.78 50.878-24.56 72.659-6.214 21.78 18.348 24.563 50.879 6.214 72.659-34.575 41.042-94.218 72.236-167.944 87.836-47.862 10.126-98.966 13.015-147.7 8.595z" fill="url(#SVGID_4_)"/><path d="m101.877 474.928c-20.295-1.841-40.292-4.572-59.741-8.194-27.997-5.212-46.468-32.134-41.256-60.131 5.211-27.998 32.142-46.497 60.131-41.256 65.669 12.226 138.83 12.462 206.009.663 68.505-12.032 125.256-36.174 151.808-64.581 19.45-20.803 52.076-21.903 72.883-2.459 20.804 19.447 21.906 52.078 2.459 72.883-42.529 45.497-116.863 79.495-209.31 95.731-59.194 10.396-122.413 12.837-182.983 7.344z" fill="url(#SVGID_5_)"/><path d="m147.694 139.347c-.568.584-1.122 1.177-1.664 1.777-.287.319-.578.636-.858.96-.579.669-1.137 1.35-1.684 2.037-.41.516-.807 1.039-1.198 1.565-.395.53-.788 1.061-1.165 1.601-.351.503-.689 1.013-1.024 1.525-.265.404-.523.811-.778 1.22-.347.558-.694 1.116-1.023 1.682-.182.314-.351.633-.528.95-.307.551-.619 1.1-.909 1.658 1.721 2.383 3.381 4.813 4.971 7.293l311.803 311.803c6.813-1.264 13.29-2.793 19.415-4.607 25.076-7.416 40.261-32.215 36.309-57.375l-308.858-308.859c-2.227-1.457-4.412-2.973-6.56-4.537-.309.302-.611.611-.937.9l-41.903 37.131c-.9.797-1.761 1.621-2.605 2.457-.272.269-.537.545-.804.819z" fill="url(#SVGID_6_)"/><path d="m284.86 467.584c2.194-.385 4.369-.79 6.542-1.196 11.606 2.102 22.778 3.904 33.55 5.424l-174.3-174.515c-1.362-2.126-4.515-2.125-5.878 0-6.058 9.452-14.065 17.537-23.456 23.682-2.085 1.364-2.085 4.474 0 5.837l143.838 143.896c6.608-.951 13.184-1.983 19.704-3.128z" fill="url(#SVGID_7_)"/><path d="m390.892 477.644-264.208-264.208c-3.453-2.259-6.706-4.794-9.752-7.554-.609-.675-1.21-1.358-1.797-2.053-.078.048-.154.101-.232.15-1.908-1.854-3.73-3.796-5.448-5.83-.038.023-.075.048-.112.071-.603.373-1.198.758-1.785 1.155-.14.094-.277.192-.416.287-.506.349-1.007.707-1.501 1.074-.133.099-.267.198-.399.299-.545.414-1.082.837-1.611 1.272-.059.048-.119.095-.177.143-1.22 1.013-2.394 2.083-3.518 3.207-.058.057-.114.117-.171.174-.494.499-.978 1.008-1.453 1.528-.08.087-.159.175-.239.263-.482.536-.955 1.081-1.416 1.638-.037.045-.075.088-.112.133-1.027 1.25-1.999 2.553-2.909 3.904-.016.023-.031.047-.046.071-.423.63-.83 1.271-1.226 1.922-.055.09-.108.18-.162.27-.375.625-.737 1.258-1.087 1.901-.034.063-.07.126-.104.19-1.156 2.149-2.166 4.4-3.018 6.74-.035.096-.069.193-.103.289-.248.694-.482 1.397-.702 2.106-.028.09-.057.18-.085.271-.24.79-.464 1.588-.668 2.397 4.106 4.083 7.776 8.603 10.914 13.499l229.067 229.067c23.423 3.261 44.881 5.134 64.476 5.624z" fill="url(#SVGID_8_)"/><path d="m200.503 114.252c-18.782 12.289-34.797 28.459-46.914 47.364-2.725 4.251-9.031 4.251-11.755 0-12.116-18.905-28.13-35.075-46.913-47.363-4.169-2.728-4.169-8.947 0-11.675 18.782-12.289 34.797-28.459 46.913-47.363 2.724-4.251 9.03-4.251 11.755 0 12.116 18.905 28.132 35.075 46.914 47.364 4.169 2.726 4.169 8.945 0 11.673z" fill="url(#SVGID_9_)"/><path d="m126.684 219.273c-9.391 6.144-17.399 14.229-23.457 23.682-1.362 2.126-4.515 2.126-5.878 0-6.058-9.452-14.065-17.537-23.456-23.682-2.085-1.364-2.084-4.474 0-5.837 9.391-6.144 17.399-14.229 23.456-23.682 1.362-2.126 4.515-2.126 5.878 0 6.058 9.452 14.066 17.537 23.457 23.682 2.085 1.364 2.085 4.474 0 5.837z" fill="url(#SVGID_10_)"/><path d="m492.862 191.096c-9.391 6.144-17.399 14.229-23.457 23.682-1.362 2.126-4.515 2.126-5.878 0-6.058-9.452-14.065-17.537-23.456-23.682-2.084-1.364-2.084-4.474 0-5.837 9.391-6.144 17.399-14.229 23.456-23.682 1.362-2.126 4.515-2.126 5.878 0 6.058 9.452 14.066 17.537 23.457 23.682 2.084 1.363 2.084 4.473 0 5.837z" fill="url(#SVGID_11_)"/><path d="m174.108 326.817c-9.391 6.144-17.399 14.229-23.457 23.682-1.362 2.126-4.515 2.126-5.878 0-6.058-9.452-14.065-17.537-23.456-23.682-2.085-1.364-2.084-4.474 0-5.837 9.391-6.144 17.399-14.229 23.456-23.682 1.362-2.126 4.515-2.126 5.878 0 6.058 9.452 14.066 17.537 23.457 23.682 2.084 1.363 2.084 4.473 0 5.837z" fill="url(#SVGID_12_)"/><path d="m436.106 136.883c-9.391 6.144-17.399 14.229-23.457 23.682-1.362 2.126-4.515 2.126-5.878 0-6.058-9.452-14.065-17.537-23.456-23.682-2.084-1.364-2.084-4.474 0-5.837 9.391-6.144 17.399-14.229 23.456-23.682 1.362-2.126 4.515-2.126 5.878 0 6.058 9.452 14.066 17.537 23.457 23.682 2.085 1.363 2.085 4.473 0 5.837z" fill="url(#SVGID_13_)"/></svg>